<svg xmlns="http://www.w3.org/2000/svg" viewBox="0 0 120 120" role="img" aria-labelledby="title">
  <title id="title">Upwork logo</title>
  <rect width="120" height="120" rx="24" fill="#14a800"/>
  <path
    fill="#ffffff"
    d="M79.6 34.5c-10.1 0-17.9 6.8-22 17.5-4.1-6.2-7.2-13.7-9-21.5H35.7v33.2c0 6.2-3.5 10.2-8.9 10.2s-8.9-4-8.9-10.2V30.5H6v33.2c0 13.5 8.2 22.3 20.8 22.3s20.8-8.8 20.8-22.3v-5.5c2.6 5.2 5.8 10 9.6 14.1l-7.3 34.2h12.2l5.2-25.5c3.8 2.7 8.1 4.2 12.7 4.2 14.5 0 24-11.7 24-25.4 0-14.1-9.5-25.3-24.4-25.3Zm.2 39.7c-3.5 0-6.9-1.5-10.1-4.1l2.4-11.4c1.8-8.3 5.4-13.4 7.8-13.4 6.6 0 11.5 6.4 11.5 14.5 0 8-4.9 14.4-11.6 14.4Z"
  />
</svg>
